<mxfile host="65bd71144e">
    <diagram id="S6BmyvG19muxuitR4qPJ" name="ページ1">
        <mxGraphModel dx="858" dy="497" grid="1" gridSize="10" guides="1" tooltips="1" connect="1" arrows="1" fold="1" page="1" pageScale="1" pageWidth="827" pageHeight="1169" math="0" shadow="0">
            <root>
                <mxCell id="0"/>
                <mxCell id="1" parent="0"/>
                <mxCell id="2" value="AWS Cloud" style="points=[[0,0],[0.25,0],[0.5,0],[0.75,0],[1,0],[1,0.25],[1,0.5],[1,0.75],[1,1],[0.75,1],[0.5,1],[0.25,1],[0,1],[0,0.75],[0,0.5],[0,0.25]];outlineConnect=0;gradientColor=none;html=1;whiteSpace=wrap;fontSize=12;fontStyle=0;container=1;pointerEvents=0;collapsible=0;recursiveResize=0;shape=mxgraph.aws4.group;grIcon=mxgraph.aws4.group_aws_cloud_alt;strokeColor=#232F3E;fillColor=none;verticalAlign=top;align=left;spacingLeft=30;fontColor=#232F3E;dashed=0;" vertex="1" parent="1">
                    <mxGeometry x="160" y="120" width="640" height="305" as="geometry"/>
                </mxCell>
                <mxCell id="3" value="VPC" style="points=[[0,0],[0.25,0],[0.5,0],[0.75,0],[1,0],[1,0.25],[1,0.5],[1,0.75],[1,1],[0.75,1],[0.5,1],[0.25,1],[0,1],[0,0.75],[0,0.5],[0,0.25]];outlineConnect=0;gradientColor=none;html=1;whiteSpace=wrap;fontSize=12;fontStyle=0;container=1;pointerEvents=0;collapsible=0;recursiveResize=0;shape=mxgraph.aws4.group;grIcon=mxgraph.aws4.group_vpc;strokeColor=#248814;fillColor=none;verticalAlign=top;align=left;spacingLeft=30;fontColor=#AAB7B8;dashed=0;" vertex="1" parent="2">
                    <mxGeometry x="120" y="80" width="160" height="200" as="geometry"/>
                </mxCell>
                <mxCell id="5" value="Private subnet" style="points=[[0,0],[0.25,0],[0.5,0],[0.75,0],[1,0],[1,0.25],[1,0.5],[1,0.75],[1,1],[0.75,1],[0.5,1],[0.25,1],[0,1],[0,0.75],[0,0.5],[0,0.25]];outlineConnect=0;gradientColor=none;html=1;whiteSpace=wrap;fontSize=12;fontStyle=0;container=1;pointerEvents=0;collapsible=0;recursiveResize=0;shape=mxgraph.aws4.group;grIcon=mxgraph.aws4.group_security_group;grStroke=0;strokeColor=#147EBA;fillColor=#E6F2F8;verticalAlign=top;align=left;spacingLeft=30;fontColor=#147EBA;dashed=0;" vertex="1" parent="3">
                    <mxGeometry x="15" y="40" width="125" height="120" as="geometry"/>
                </mxCell>
                <mxCell id="8" value="" style="sketch=0;points=[[0,0,0],[0.25,0,0],[0.5,0,0],[0.75,0,0],[1,0,0],[0,1,0],[0.25,1,0],[0.5,1,0],[0.75,1,0],[1,1,0],[0,0.25,0],[0,0.5,0],[0,0.75,0],[1,0.25,0],[1,0.5,0],[1,0.75,0]];outlineConnect=0;fontColor=#232F3E;gradientColor=#F78E04;gradientDirection=north;fillColor=#D05C17;strokeColor=#ffffff;dashed=0;verticalLabelPosition=bottom;verticalAlign=top;align=center;html=1;fontSize=12;fontStyle=0;aspect=fixed;shape=mxgraph.aws4.resourceIcon;resIcon=mxgraph.aws4.fargate;" vertex="1" parent="5">
                    <mxGeometry x="38.5" y="50" width="48" height="48" as="geometry"/>
                </mxCell>
                <mxCell id="18" value="" style="shape=image;verticalLabelPosition=bottom;labelBackgroundColor=default;verticalAlign=top;aspect=fixed;imageAspect=0;image=data:image/png,iVBORw0KGgoAAAANSUhEUgAAAR8AAACvCAMAAADzNCq+AAAA/FBMVEX///8zMzNon2M+hj0vLy9QUFBrv0cqKip2rmNvpmB4sWIiIiJro155tGFhm1t3sGN3tl19fX10q2RinFhbmFa1zrNxulNVlE7p8OixsbGgwZ3D2MF0dHRvvE/y9/FzuFegoKBIjEVGRkYfHx+RkZFqampXnUs9PT0zgTLc3NxdXV3FxcVWmE3z8/O+vr4VFRXs7OzW1taTuZBXoEqJiYmEsIBZpkjT4tJzpm+oqKhiYmLg69+2trauyqyNtorDw8OVwI4AAACWx4yawY95rGytzaTC2ryHu3Wp0p1dtDV9wmOXzYZinVFarjxDiz16qnZTpT9kqU9BlzInfCZzB9uDAAAOd0lEQVR4nO2db2ObthaHwSahvaSsiXFxTELjkP+xa4fEwaljd9vdetc7z95uv/93uRJIgEASAju1Y/i9ylaD4dHRkY50jixJr1uD09PbdT/DJmtfVfo7d+t+is3VvirLSv9osO7n2FRBPrKsOme9dT/JZirgI8ua/LTuR9lIYT6y7Ox8WvfDbKAiPrLifK4cdVIxPsANafvX636gDRPBBxBSzqqhLK4EH+CoLw/X/UybpBQfMBuqJtSR0nxk9WjdD7VBovBRdtb9UBukig9fFR++Kj58VXz4qvjwVfHhq+LDV8WHr4oPXxUfvio+fFV8+Kr48FXx4aviw1fFh6+KD18VH74qPnxVfPiq+PBV8eGr4sNXxYevig9f6+Vze3aysnQR217VneJalk9vUDxx8frIUTX5ZCWZj61/H/zmrojQ7dFRmEq3HJ/Bw6myUzBxcXCm+t+tnS6f12f//ubNwUFDnyx9J9Bq546qOjcolW4pPk+ypsiKtlMkIebpUsPft3Re39ef3kE+B7o5spa7k9R7CFpN1Y78VLol+Hw5ddAF6F45dLsDyIZS1f0l3JD3n/f/+snns6c3zMW4+J1gq4U8VAXmPBfmA8xQib1grvzp6/M4Hf8G8kmh9wGO59f3794hPge6DggVd0Nkq8FUutvTxIOK8kHOI34v0afoPWjpRinqhv74+D7GZw8CajSKuaF0qymqmsYjwuc5dB7RVZpgGceTSqEDb+Dc5E6e/frxY5zP27cNHaqh53dD9FajPmgWn7sbh4IVvOBRdie7u3SYX6z293ON9d77Y4gH8nmD+LzVA0C53dAho9Xy8+kd9Wl0ghc84T/F4Jx5bXADR3yyYP/57cNHzAf1L2RADdDJunnc0O0pu9Vy8jlxeKA1mTPW9876mY3kXApOFv74dnz84QPJ5y02oAZUtylIJ6vVcvD5knY8iYv7n1le5FDOuDbrBjF93d09Bnw+pvns6SGhWUPEDYm0miCf688CoBm1Unc7oias9h8y3JD3328QT8x+Qv+DDQgC2tubZbuhQ0Wk1UT4DB4EQWtyaqwHoVYOE1ZVnhtq/fltdzfgQ7EfZEAIUGPGd0PirZbJhzUu0xSGL4F6ydlS9g2YMYv9x64v0n5i/Qt1MD0AtNdosN1QvlbDovLJ5eHhWB+LGCizJYEb0GOWr8ffYnxo/icE1AgA7c1+86h08rcaerQ0HyKYEJOqoIULxmwp+waUmAU6nl2a/byJ82kQBgQJTSlu6LBAq/lK8Rk8FALt+BHDXc7RISbtJvEg7b92dwk+6fkP5IOHsAjQ3izZyYq2mpzmkzmmM2/knEvS56KPAeSQIZk3v0jwofqf0IAgIMRnb05a0HWxrhW8FslnIBd/Q+dMKnwtkHpGmk/H/MC1H8wnctE6AtS4ImPWh4JNDpXg8yn/CBjpcpV83I7ZZdjPG5JPQ0+4oM5Vm7jVUXHzSfI5XAK1LK+Yj/koZD97KAzDY5hZLwsfU8T/gElPzIAAoPrr5KM4fe7oluTTBXz+EbEfAMWIAlVgPvn48J13Hj7gDfktwePjnN5KPd56AI2PeSzifzCfYJCv5+Kj9Pf3eXFmDj7Ozt01ezkIis1HVYIorcee5FP53IvZDwYEEHXy8AmWMa850yNhPpryDD8AYjw2IRYfVY2CdOYNUny63dCAMvxPnE89Bx/t8kvwiU/MWZ8gH1ULn/5QZjYHnY+inRPRFSNCo/ABhC4E7QcD6ojzUeOntJww3kqID3jD2JZVjxmBUPkoqTOrQKyYzWd6EQA6FrMfBMioi/KJ2zQUI64S4ZPaM70+p31MuaHzoewGnlCup/PpXojZj2lE5iPCRzlPrRhcn2fv79D4qCfoH1uujiO/T5SdNOeOxkfdT+ORepQnTvD5GfHxo4xs+zF9QIH5CPBRzilPJd1k7g9S+OBP2BNdr+kLj/GdGuxGFD7aiUQRZacyxQcIG5AIHwioI8qHfmzEeeb+Mo1PsPBg1fQalB4srzwkjoIJMldWyef+AhF6FOVjmHXR/rVyPhOzhqQbdpKPqqEFxNXzAYQuBPmYRsfXWvi0dcynZrRIPkq0AP0SfC6AAQn4Z9PsmB2kjeKjXT6Hl6+UTwioc7wrYj+dzgbyIReOV8sHE6rfM/cHif4V8qlvCh+lT248rJLP4z0iNK/XhfxPZ+P4OMmp8eXK+QBCYECaC/mfUPM18DFCPibks6/S8i9egs8cjtiP/PWN9fOR2miA12v+DPH2l18oG+cr5fP4iM2nDnsYa39nM/wPiC6GwIT0MMLo0dIKVsjn10df9wEeYEBC/qe+HJ8i8UUUYHojIyMPaZV8/vb5zBGf+gch/1Ovi/UvWaEkRTwVi08VJczQyEogWTkfbD71+r2Q/wF8TBH7oYwt9KQDofUfdoLFS/MJzScwoMz5Tx0CMjsi62NKP77Ewcp2Els/JO/14/hE5lOvXwj5H3E+MLnrAbmOwQNr40B0/VnsUO1V86nH9Y8YH9jDRNfng7yT3onCXsEX3r8QOVR7pXz+/vue4DMX8j9A4nz8vJNPvGynHPs7SrYbWi0f0nygAYn4HziE5dgfVLRkIn1RPuw8rxfiM0/wmYv1LwBobfvLqvrAK74R5dMT4PNX0nzAGC/IR2R8fxk+cLmH44ZofKgf3xHgkzQfYEBi/ucF8xOes/MTFG3nSw4+fWqPfEi7xASf3/+XwgPGeCH/U/9OpopTyrqEpZIbHXci+VHJDVEOH7VPr4TqpadjCT72/IoCSKh/XdXIL7vtF+fzyzN5ryOhBDJVo2e9J/iAaSXTW6W2vBN8JHvxPc2nm83n6rub/K7DommjlBocwQIFetY7ycc55RaJJZJdknxAPGymCb3L8j/fR5QgccDPO2GIXh0iWuCiUYpv4nxUNavIkHzqNB9Jal4lO1mXu/5Tv+rQ08OL1BbQXjDPvZR+qgYw4hNL+OAonuxC4yNJ7vcEoX9x+td8zqlyEqsoil4g3Fan6JNYnYuSrAHEfMiED56iZBc6H6k1IgF12HzmKcdD6ky0qNLf8eSHmydiOdXaKXGbS0QnT5E8/iZme3kGQWjG4DMftrK+apAqymW0u5ZdljbYF6GtqMSNfD55f3RkcOR/E8eem50YoQ6Nj9ltMBwPqURRN6vRhaqr7z5n3ktNdIpLXGmfT359BM9h2W7MUc/SfLriVd6ZlSo5qvO/8Gmn54nn/awIlqHnU6fPbbRxbDaU4pOrPLd3xl7tiaVaiOmJTVtxblJepvdU9HCN3nOWy/J0TKhL1qd0hznLu6+PWM2e/3SQAauuTDt9zr56tQrdUJzP7LcCp5Tc0pNoC/1qHLUuMSyI+6HCbsgM+cz2mDOesWVx7IrihtSipxOlaIPwa00/HIbc0Fs0fZ79znI83gLmI7rsIT9ZcBkt1hfQU3zuqThimxkvI88AhDo+n9nPLAMZT1EyYG3C9tzxYoBljyXqneFgUmAV+oXVnF/VGwcHswPWjMdu62G2ic47ROkWB1La5dLHWoFgUpU34xfnbBCUvZl9Zf1zE2WSGsiGeMcGHKoadBcnq3isu899R1uHW07LnjDng94I0VmMLWRGOmd61DvTlnE8pK5vN/33HP0kE4gkOBSoberBf63iLLfXL7sd9CndwAv0rSniVVv2LLctUBN5HGMaG9Zj/W19T7YJ8nCC/yIxruHMf6P9Ioduvg61XHZHwuN9lPxWNvm1Mz4Buo208HxxJLRKtG2yRkTtDE3eAvum0rmhMR7Tk46HFJo2skxsW9XCzqWW5Vxs+iettjvJXLl+tQqtghOIhhpPU5ZmLyatljXc0tlROLnhLGSQFywMMuQYtbzJZCxNt9Jvj/HUL8fbYYMb+oCaluS2m3rLHr7UM65ToyKhA3JDQUi2kCTXao1sqb2FLsiDfaXAcDQeQkAjeB3g0x4tQLTW3sJhvwleUy/kOGC1ll9GC7C4llSzpekWDvqQTy2rX9g25bcOLB2VsY2H0hTwGXvt9JWvXhQ+HlCIw7bai+BUjoXbJD4X8pEmPhhv9AMe94crzcfu6uHaj+0asWVo3YjvIkZ8QHTfniwyEj9eqSh8YIlawMcyoopQVPcY9aEYHzAD30LX7IvHx8LrrIHQAhD+HMFna8XhY6PljOnEAh6pOQ0mhSYe7ErPZ+JPAaOJo235wLAbLj2fBcRDhOke/DBmUnY+Now8DHLe4+qRRVV80nw8P2Eh+LvsfIL+ldgUbLuuW9lPwMf1/fOo7bWocVXp+Xhowd6ojYZu0xsnWJSeT/y8EH9+OHKt2CcrPtIkEV8ARtEiasXH39iIBahBb8MBRsXH17jpLnT/ZE1EyEBTxopP7P+NvWZ7hHqbGQxnFZ+Ugj1oNIEuO5/JcDhMYRrWosWhkvOByQhmcmYIoejT8M8y85nqxOpGIJ+PG/5ZZj7+8k9yzX0YrXmUnY+/8ZxI6/VPKDSCteay8/E7GEz1AfEpUGvstYPhC22zl55Pa4TSXvwtaCOcSCOLKj0fabxIbu/ATAa8k1PxgT46EX3FMhkqPpK/vTzCv/tg1IbNan0jHV+0PMtqNpvWmJwsloNPMOGLvzkn/opr7C9Pb2FGC6mWPzjFs1GF+NjBWc1bmVFHqo3ydcNIYmykty2SagZu29jKjMyEkrU5EBi/yAJXsRjlKMWY4NQMf215YkQhBFUtnN5bmjoM20VJ8UZtFPw1YvpdG53xXa46niAbNZoGMt2Pxa/x2V7h8h3/7aeMD+FUez3vaR3boGbQt8BEmTG4h3WovHL4bda4PRwOE1mqocLyucwan1LKwjU+eY4J2l55LjF445Ido4yOJyXbGhLntrRcvdyOh5RdM+KOxp6grsU7x6VUasVLBMPKd9HyuTIonOi4aOJoDMsSTAiqiUfzRHRfCcl2cfaYblSOhyZvFGzsTCvHw5A1rdXcDZvx/B8mQUDEGUfs5QAAAABJRU5ErkJggg==;" vertex="1" parent="5">
                    <mxGeometry x="69" y="30" width="49.2" height="30" as="geometry"/>
                </mxCell>
                <mxCell id="4" value="VPC" style="points=[[0,0],[0.25,0],[0.5,0],[0.75,0],[1,0],[1,0.25],[1,0.5],[1,0.75],[1,1],[0.75,1],[0.5,1],[0.25,1],[0,1],[0,0.75],[0,0.5],[0,0.25]];outlineConnect=0;gradientColor=none;html=1;whiteSpace=wrap;fontSize=12;fontStyle=0;container=1;pointerEvents=0;collapsible=0;recursiveResize=0;shape=mxgraph.aws4.group;grIcon=mxgraph.aws4.group_vpc;strokeColor=#248814;fillColor=none;verticalAlign=top;align=left;spacingLeft=30;fontColor=#AAB7B8;dashed=0;" vertex="1" parent="2">
                    <mxGeometry x="360" y="80" width="160" height="200" as="geometry"/>
                </mxCell>
                <mxCell id="6" value="Private subnet" style="points=[[0,0],[0.25,0],[0.5,0],[0.75,0],[1,0],[1,0.25],[1,0.5],[1,0.75],[1,1],[0.75,1],[0.5,1],[0.25,1],[0,1],[0,0.75],[0,0.5],[0,0.25]];outlineConnect=0;gradientColor=none;html=1;whiteSpace=wrap;fontSize=12;fontStyle=0;container=1;pointerEvents=0;collapsible=0;recursiveResize=0;shape=mxgraph.aws4.group;grIcon=mxgraph.aws4.group_security_group;grStroke=0;strokeColor=#147EBA;fillColor=#E6F2F8;verticalAlign=top;align=left;spacingLeft=30;fontColor=#147EBA;dashed=0;" vertex="1" parent="4">
                    <mxGeometry x="17.5" y="40" width="125" height="120" as="geometry"/>
                </mxCell>
                <mxCell id="9" value="" style="sketch=0;points=[[0,0,0],[0.25,0,0],[0.5,0,0],[0.75,0,0],[1,0,0],[0,1,0],[0.25,1,0],[0.5,1,0],[0.75,1,0],[1,1,0],[0,0.25,0],[0,0.5,0],[0,0.75,0],[1,0.25,0],[1,0.5,0],[1,0.75,0]];outlineConnect=0;fontColor=#232F3E;gradientColor=#4D72F3;gradientDirection=north;fillColor=#3334B9;strokeColor=#ffffff;dashed=0;verticalLabelPosition=bottom;verticalAlign=top;align=center;html=1;fontSize=12;fontStyle=0;aspect=fixed;shape=mxgraph.aws4.resourceIcon;resIcon=mxgraph.aws4.aurora;" vertex="1" parent="6">
                    <mxGeometry x="42.5" y="50" width="48" height="48" as="geometry"/>
                </mxCell>
                <mxCell id="10" style="edgeStyle=none;html=1;" edge="1" parent="2" source="7" target="8">
                    <mxGeometry relative="1" as="geometry"/>
                </mxCell>
                <mxCell id="7" value="" style="sketch=0;points=[[0,0,0],[0.25,0,0],[0.5,0,0],[0.75,0,0],[1,0,0],[0,1,0],[0.25,1,0],[0.5,1,0],[0.75,1,0],[1,1,0],[0,0.25,0],[0,0.5,0],[0,0.75,0],[1,0.25,0],[1,0.5,0],[1,0.75,0]];outlineConnect=0;fontColor=#232F3E;gradientColor=#FF4F8B;gradientDirection=north;fillColor=#BC1356;strokeColor=#ffffff;dashed=0;verticalLabelPosition=bottom;verticalAlign=top;align=center;html=1;fontSize=12;fontStyle=0;aspect=fixed;shape=mxgraph.aws4.resourceIcon;resIcon=mxgraph.aws4.api_gateway;" vertex="1" parent="2">
                    <mxGeometry x="10" y="170" width="48" height="48" as="geometry"/>
                </mxCell>
                <mxCell id="11" style="edgeStyle=none;html=1;" edge="1" parent="2" source="8" target="9">
                    <mxGeometry relative="1" as="geometry"/>
                </mxCell>
                <mxCell id="13" style="edgeStyle=none;html=1;" edge="1" parent="1" source="12" target="7">
                    <mxGeometry relative="1" as="geometry"/>
                </mxCell>
                <mxCell id="12" value="" style="sketch=0;outlineConnect=0;fontColor=#232F3E;gradientColor=none;fillColor=#232F3D;strokeColor=none;dashed=0;verticalLabelPosition=bottom;verticalAlign=top;align=center;html=1;fontSize=12;fontStyle=0;aspect=fixed;pointerEvents=1;shape=mxgraph.aws4.user;" vertex="1" parent="1">
                    <mxGeometry x="20" y="290" width="48" height="48" as="geometry"/>
                </mxCell>
                <mxCell id="16" value="user" style="text;strokeColor=none;align=center;fillColor=none;html=1;verticalAlign=middle;whiteSpace=wrap;rounded=0;" vertex="1" parent="1">
                    <mxGeometry x="14" y="350" width="60" height="30" as="geometry"/>
                </mxCell>
            </root>
        </mxGraphModel>
    </diagram>
</mxfile>